<svg width="24" height="24" viewBox="0 0 24 24" fill="none" xmlns="http://www.w3.org/2000/svg">
<circle cx="12" cy="12" r="11.5" stroke="#BDBDBD"/>
<path d="M8.25684 8.91C9.51684 8.298 10.8308 7.956 12.0008 7.956C13.4948 7.956 14.4308 8.838 14.4308 10.242C14.4308 11.448 13.0268 12.258 10.6868 12.474L10.8668 14.796H11.8748L11.8388 13.374C14.2508 12.978 15.6728 11.826 15.6908 10.134C15.6728 8.136 14.3228 6.84 12.1808 6.84C10.7588 6.84 9.35484 7.254 7.89684 7.956L8.25684 8.91ZM11.3888 16.686C10.9748 16.686 10.7048 16.956 10.7048 17.352C10.7048 17.748 10.9748 18.054 11.3888 18.054C11.8028 18.054 12.0728 17.748 12.0728 17.352C12.0728 16.956 11.8028 16.686 11.3888 16.686Z" fill="#BDBDBD"/>
</svg>
